/* XPM */
static char *ecdfee3b169242b280b895a767800d54K4hxgQDWuDpW8Exx[] = {
/* columns rows colors chars-per-pixel */
"64 64 62 1 ",
"  c None",
". c #06509E",
"X c #0654A5",
"o c #0657AA",
"O c #0659AD",
"+ c #055CB4",
"@ c #045FB9",
"# c #0562BC",
"$ c #0266C3",
"% c #0569C6",
"& c #0B6CC6",
"* c #066BC9",
"= c #0E6EC8",
"- c #106FC7",
"; c #1371C9",
": c #1B75CA",
"> c #1F78CB",
", c #056ED0",
"< c #0671D2",
"1 c #257CCD",
"2 c #2D81CF",
"3 c #3283CF",
"4 c #2B80D0",
"5 c #3686D1",
"6 c #3C8AD3",
"7 c #448ED4",
"8 c #4790D4",
"9 c #4B93D6",
"0 c #5498D7",
"q c #5297D8",
"w c #5599D8",
"e c #5D9DDA",
"r c #65A3DC",
"t c #6AA5DD",
"y c #6FA8DD",
"u c #74ABDF",
"i c #77ADE0",
"p c #78AEE1",
"a c #7FB2E1",
"s c #83B5E2",
"d c #8CBAE5",
"f c #92BDE6",
"g c #96C0E7",
"h c #9CC4E9",
"j c #A2C7EA",
"k c #A6CAEA",
"l c #AACCEC",
"z c #B3D1ED",
"x c #B8D4EE",
"c c #BED8F0",
"v c #C1D9F1",
"b c #CADFF3",
"n c #CDE1F4",
"m c #D3E5F5",
"M c #DDEAF7",
"N c #DFECF8",
"B c #E3EEF9",
"V c #E7F1FA",
"C c #ECF3FB",
"Z c #F2F7FC",
"A c #F5F9FD",
"S c #FFFFFF",
/* pixels */
"                           +++@@#@++O                           ",
"                       @##$$$$$$$$$$$$$@+                       ",
"                    @#$$$$$$$$#$$$$$$$$$$$@+                    ",
"                  @$$$$$$$#$$$$$$$$$$$$$$$$$$@                  ",
"                +$$$$$$$$$$$$$$$$$$$$$$$$$#$$$$O                ",
"              O$%$$$$$$$$$$$$$$$$$$$#$$$$$$$$$$$$+              ",
"             @%$$$$$$$$$$$$$$$$#@$@$$$@$#$$$#$$$$$@             ",
"            $*$$$$$$$$$$$$$$$$$$$$$$$$$$$$$#$$$$$#$$            ",
"           %%$$%$$%$%$$$$$$$$$$$$$$$$$$$$$#$$$@$$$#$$o          ",
"          *%$$$$$%$$$$$%$$$$#$$$$$$$$$$#$$$$$$$$$$$$$$+         ",
"         *%$$$%$$$$%%$%$$$$$$$$$$$$$$#$$$$$$$$@$@$#$$$$         ",
"        **$$%%$$$%$$$$$$$$$$$$$$$$$$$$$$$$@$$$$$$$$$$$$$        ",
"       %%$$%$$$%$$$$%$$$$%$$$$$$$$$$$$$$$$#$$$$$$$$$$$$$%       ",
"      @*$%%$%$$$%$%$$$%$$$$$$$$$$$$$$$$$$$$$$$$$$$$@$@$$%@      ",
"     X,$%%$%%%%$$$%$$$$%$$fbcvvvxvvxbs$$$$$$#$$#$$$$$$$$$*o     ",
"     %%%%$%%$$%%%$$$$%$$%;SSSSSSSSSSSA$$$$$$$$$$$$$$$$$$$$$     ",
"    +*$%%$%%$%$%$$$%$%$$$eSSSSSSSSSSSS7$$$$$$$$$@$$$$@$$$$$+    ",
"    *%%$%$%$$%%%%%$%$$$%$kSSSSSSSSSSSSd$#$$$$$$$$$$$$$$$$$$$    ",
"   +*$%$%%%%%%$$$$%$$$$%&CSSSSSSSSSSSSN$$$$$$$$$$$$$$$$@@$$$@   ",
"   ***$%$%$$%$%%%%%$%%$$8SSSSSSSSSSSSSS3$$$$$$$$$$$@$$$$$$$$%   ",
"  O*%*$*$%%%%%%$%%%$%%$$fSSSSSSSSSSSSSSa$$$$$$$$$$$$$$$$$$$$%O  ",
"  $%*$%%%%$%$$%%$$%%$%*$NSSSSSSSSSSSSSSm$$$$$$$$$$$$$$$$$@$$%$  ",
"  **%%$*%%%$%%%$%%$%%$$5SSSSSSSSSSSSSSSS3$$$$$$$$$$$$$$$$$$$$%  ",
" o*%%*$*%%%%%$%$%$%%$%%sSSSSSSSSSSSSSSSSr%$$$$$$$$$$$$$$$$$$$%O ",
" #%%%%%%%%%%$%%%%%$%$%%mSSSSSSSSSSSSSSSZ-%$$%$$$$$$$$$$$$$$$@$@ ",
" $%%%%%%%%%%%%$%$%$%%%1SSSSSSSzxSSSSSSSy%%$$$$$$$$$$$$$$$$$$$$$ ",
" %%%%%%%%%%%%$%%%%%$%$uSSSSSSS9rSSSSSSV$8y%$$$%$$$$$$$$$$$$$$$$ ",
"o*%%%%%%%%%%%%%%$$%%%$cSSSSSSS;6SSSSSS9$sm$$%$$$$$$$$$$$$$$$$$$O",
"O**%%%%%%%%%%%%%*%%$%:ASSSSSSB%&SSSSSx$$kS-%%$$$$%$$$$$$$$$$$$$+",
"@*%%%%%%$%%%%%%%%%%%*eSSSSSSSj%$vSSSA;$$mS0$$$%%$$$$$%$$$$$$$$$@",
"#%%%**%%%%%%%&%%%%%%$lSSSSSSSe%%sSSS0$%1SSk$$%$$$%$$$$$$$$$$$$$#",
"#&%*%%%*%%%%%%%%%%%%=ZSSSSSSS>$%6SSf$%$rSSC%$$$%$$$%$%$$$$$$$$$#",
"#%*%*%%%%%%%%%%%%%%%9SSSSSSSb%%%%SB$%%$kSSS7$$$$%$%$$$%$%$$$$$$#",
"#*%%%%*%*%%%%%%%%%%%hSSSSSSSu%$&$f2%$%&CSSSf$%$%$$$$%$$$$$$%$$$#",
"+*%**%%*%*%%%*%%%%%%BSSSSSSS9->12$%%$%8SSSSN$$%$$%*$$$$%%$%$$$$@",
"O*&%*%*%*%%%%%%%%%%6SSSSSSSSCASS8%%$%%gSSSSS5$$$$$$$%$$$$$$$$%$+",
"o*&**%%%**%*%*%%%%%dSSSSSSSSSSSe%$%%%%VSSSSSs$$%$%$%$$$$$$$$$$%O",
" *%**%*&%**%%*%*%%%mSSSSSSSSSS0%%%$$$8SSSSSSm%%%*$$$$%%$%$%$%$$ ",
" $&%&%*%%*%&%%*%%*1SSSSSSSSSS0%%%$%%%jSSSSSSS1%$$$$%$$$$$$$%$$$ ",
" #**%*%%&*%%*%%%%%pSSSSSSSSS9%%%%*%%&ASSSSSSSi%$%%*$%$%$*$$%$%# ",
" o<&%%%*&%%*&%%**%vSSSSSSSV5%%%%%%%%rSSSSSSSSv$%%%%$%%%$$$%$$*O ",
"  ***&*%*%*%%%%**>SSSSSSSM1%%%%%%%%%nSSSSSSSSS>$$$%%$$%$$$$$$*  ",
"  #*%**&%**%*&%%%tSSSSSSc;%%%%%%%%%7SSSSSSSSSSr$%$%$%$%$*$%$%#  ",
"  o<%*%*%%&**%%*%zSSSSSf%*%%%%%%%%%5SSSSSSSSSSz%%%%$%%%$%$%$%+  ",
"   =**&%*&%*%%*%;ASSSSt$%%%%%%%%%%%%mSSSSSSSSSA;$$%$%$%%%$$%%   ",
"   O<*%%**%%**&%wSSSM6***%*%%%%%%%%%sSSSSSSSSSSw%%%%%$$%%%%*@   ",
"    *****%****%*hSSl;%*%%%*%*%%%%*%%7SSSSSSSSSSk%$$%%%%%$%**    ",
"    +<***%*&*%%*SSt*%**%**%*%%%%%%%%&CSSSSSSSSSV%%%%$%$$%$*+    ",
"     *****&***%pB5%%%*%%**%&&%%%%%%%%zSSSSSSSSSSr%$%%%$$%$*     ",
"     .<*****%**e-***%%*&%%%*%*%*%%%%%qbcvvvvvvcnd*%%$%%%%,X     ",
"      @<&**%***%****&*%%%*%*%%&%**%%%*%%%%%%%%*$%%%%%%$$*#      ",
"       *******%*%****%%**&%%*%*%%**%%%%%%%%%%$*$%%%%**$**       ",
"        ,****&%%&%%**%%%%%%*%%%**%%*%%**%%%%%%%%%%%%%%%*        ",
"         <*********%***&*&*&*&%*%*%%*%%%%%*%%%%%$*%%%%<         ",
"          ,=%***%***%*%***%%%%%%%%%**%%%*%%%%%*$*%%%%*O         ",
"           **&****%&*****%%**%&***&%%%**%%%*%%%%%%%%%X          ",
"            %*****&****%*%*%*%&%%%%*%&%***%%%%**%%**            ",
"             +<******%*%**&*%***&*%*%*%%%**%*%$*%*@             ",
"              o&**&****&%**%**%%%%%%%%*%*%%%****%O              ",
"                +**********%&%*****&*&*%%%&%%**+                ",
"                  @*=***%********&**%&%**&**%@                  ",
"                    +$*=************%*****$+                    ",
"                       +@&**=*********%#O                       ",
"                           o++###@++o                           "
};
