/* XPM */
static char *f4b14f0822b94be586d73caed416193eLRQfoJUWE5UDrslL[] = {
/* columns rows colors chars-per-pixel */
"32 32 223 2 ",
"   c None",
".  c #0653A3",
"X  c #0655A5",
"o  c #0654A6",
"O  c #0655A7",
"+  c #0556A9",
"@  c #0656AA",
"#  c #0657AA",
"$  c #0557AC",
"%  c #0658AA",
"&  c #0558AD",
"*  c #0658AC",
"=  c #0558AE",
"-  c #0559AF",
";  c #0659AE",
":  c #065BAF",
">  c #065AB0",
",  c #065BB0",
"<  c #065AB1",
"1  c #055AB3",
"2  c #065DB2",
"3  c #065CB3",
"4  c #065DB3",
"5  c #035EB7",
"6  c #055CB4",
"7  c #055CB5",
"8  c #065DB5",
"9  c #065EB4",
"0  c #065EB5",
"q  c #045DB7",
"w  c #055EB6",
"e  c #065EB6",
"r  c #065FB6",
"t  c #065FB7",
"y  c #035FB8",
"u  c #045EB8",
"i  c #0360BB",
"p  c #0560B9",
"a  c #0662BB",
"s  c #0360BC",
"d  c #0361BD",
"f  c #0263BD",
"g  c #0362BE",
"h  c #0263BE",
"j  c #0363BE",
"k  c #0263BF",
"l  c #0561BC",
"z  c #0461BD",
"x  c #0462BC",
"c  c #0562BC",
"v  c #0662BD",
"b  c #0663BD",
"n  c #0463BE",
"m  c #0463BF",
"M  c #0663BE",
"N  c #0564BF",
"B  c #0664BF",
"V  c #0665BF",
"C  c #0165C1",
"Z  c #0264C1",
"A  c #0265C1",
"S  c #0165C2",
"D  c #0265C2",
"F  c #0166C3",
"G  c #0266C2",
"H  c #0266C3",
"J  c #0366C3",
"K  c #0367C3",
"L  c #0464C1",
"P  c #0565C1",
"I  c #0665C0",
"U  c #0665C1",
"Y  c #0466C3",
"T  c #0567C3",
"R  c #0666C2",
"E  c #0166C4",
"W  c #0067C5",
"Q  c #0167C5",
"!  c #0266C4",
"~  c #0366C4",
"^  c #0267C4",
"/  c #0367C4",
"(  c #0267C5",
")  c #0367C5",
"_  c #0467C4",
"`  c #0567C4",
"'  c #0467C5",
"]  c #0567C5",
"[  c #0268C5",
"{  c #0068C7",
"}  c #0168C7",
"|  c #0368C6",
" . c #0369C6",
".. c #0369C7",
"X. c #0468C4",
"o. c #0568C4",
"O. c #0468C5",
"+. c #0569C5",
"@. c #0669C5",
"#. c #0468C6",
"$. c #0469C6",
"%. c #0569C6",
"&. c #0569C7",
"*. c #0669C6",
"=. c #056AC7",
"-. c #066AC7",
";. c #066BC7",
":. c #096BC5",
">. c #0C6DC7",
",. c #0E6EC7",
"<. c #0069C9",
"1. c #0369C8",
"2. c #036AC8",
"3. c #036BCA",
"4. c #046AC8",
"5. c #056AC8",
"6. c #056BC8",
"7. c #056AC9",
"8. c #056BC9",
"9. c #066AC8",
"0. c #066BC8",
"q. c #066BC9",
"w. c #056BCA",
"e. c #066BCA",
"r. c #066CC9",
"t. c #056CCB",
"y. c #066CCA",
"u. c #066CCB",
"i. c #066DCB",
"p. c #046BCC",
"a. c #046CCC",
"s. c #046DCD",
"d. c #066DCC",
"f. c #066ECD",
"g. c #046DCE",
"h. c #0E6FC9",
"j. c #1572C9",
"k. c #1975CA",
"l. c #1975CB",
"z. c #1A74CA",
"x. c #1B76CA",
"c. c #1E77CA",
"v. c #1F78CB",
"b. c #066ED0",
"n. c #0670D1",
"m. c #247CCD",
"M. c #287ECE",
"N. c #2D81CE",
"B. c #3585D0",
"V. c #3586D0",
"C. c #3485D2",
"Z. c #3C89D1",
"A. c #418DD4",
"S. c #4790D5",
"D. c #4891D4",
"F. c #4A92D6",
"G. c #4C93D6",
"H. c #4D94D5",
"J. c #4F95D6",
"K. c #5397D7",
"L. c #5096D8",
"P. c #569AD9",
"I. c #599CDA",
"U. c #5F9EDA",
"Y. c #61A0DC",
"T. c #62A1DC",
"R. c #67A4DD",
"E. c #69A5DC",
"W. c #6DA7DE",
"Q. c #6FA9DE",
"!. c #71AADF",
"~. c #76ADDF",
"^. c #76ADE0",
"/. c #79AEE0",
"(. c #7EB1E1",
"). c #85B5E2",
"_. c #8CBAE4",
"`. c #8CBAE5",
"'. c #92BDE6",
"]. c #94BFE7",
"[. c #97C1E7",
"{. c #97C0E8",
"}. c #9EC5E9",
"|. c #9FC5E9",
" X c #A0C6E9",
".X c #A1C6E9",
"XX c #A1C7EA",
"oX c #B0D0ED",
"OX c #B1D0ED",
"+X c #B4D2EE",
"@X c #B6D3EE",
"#X c #BFD8F0",
"$X c #C5DCF1",
"%X c #C6DDF2",
"&X c #C8DEF2",
"*X c #CEE1F4",
"=X c #CFE2F4",
"-X c #D2E4F4",
";X c #D4E5F5",
":X c #D6E6F5",
">X c #D7E7F6",
",X c #D8E7F6",
"<X c #DBE9F7",
"1X c #DCEAF7",
"2X c #DDEAF7",
"3X c #E2EEF8",
"4X c #E3EEF9",
"5X c #E6F0F9",
"6X c #E8F1FA",
"7X c #E9F2FA",
"8X c #EAF3FA",
"9X c #EBF3FB",
"0X c #ECF4FB",
"qX c #EEF5FB",
"wX c #F4F8FC",
"eX c #F6FAFD",
"rX c #F7FAFD",
"tX c #F8FBFD",
"yX c #FBFDFE",
"uX c #FCFDFE",
"iX c #FDFEFF",
"pX c #FEFEFF",
"aX c white",
/* pixels */
"                        6 0 y S d y u 6                         ",
"                  > n ) ) ) S S S ) S ) ) y 0                   ",
"              > d ) K K K K S K S S S S S S K d 6               ",
"            p | ) K K K K S K S ) K S S S S S K ) u             ",
"          n | | K ) K K S K K K S K K S S S L S K K d           ",
"        L 2.K K K X.K ) K K K K ) S S S L S S S S K ) d         ",
"      4 g.L ) ) | | ) #.) K L X.S K S S ) K S S S S S ) u       ",
"    # g.#.#._ _ L ) K L #.$X5X,X:X6X$X) K S K S S S K K 2.#     ",
"    T 4.#.T #.+.#.#.X.X.D.iXiXiXiXiXiXZ.K S K S K S S L ) K     ",
"  o t.#.#.#.#.T #.T | X._.iXiXiXiXiXiX).S ) S K K S S S S ) >   ",
"  V 4.#.#.#.#.#.| T X.| <XiXiXiXiXiXiX-X) K K K S K S K S ) d   ",
"  t.#.#.#.#.#.#.#.| X.V.iXiXiXiXiXiXiXiXM.S K K K S ) S K K )   ",
"% t.#.#.#.:.#.#.T | | (.iXiXiX3XiXiXiX;X#.L #.K S ) S ) S K ) $ ",
"0 #.#.:.#.4.#.4.#.#.| %XiXiX3XG.qXiXiXK.H.c.X.K L S K S K S ) q ",
"n 4.9.#.#.#.#.:.+.+.m.iXiXiX-X,.2XiX.XT -XB.) K _ ) S K K K ) d ",
"V #.#.9.4.:.#.#.+.+.^.iXiXiX'._ @XiX#.z.iX/.K ) ) ) K ) K K K d ",
"U 9.9._ :.4.4.:.#.#.@XiXiXiXD.#.~.E._ Q.iXoXT L | X.) K ) K K n ",
"v 9.9.4.4.#.4.#.#.z.rXiXiXtX|..Xm.K #.oXiXeXj.#.K X.K ) K ) ) p ",
"e 9.:.4.4.#.#.9.+.T.iXiXiXiXiX[.| X.z.iXiXiXU.) ) K K K K ) | 0 ",
"% r.9.4.:.9.4.4.t.XXiXiXiXiXQ.#.#.| W.iXiXiX.X) #.#._ ) ) ) 2.= ",
"  9.9.:.4.9.:.:.h.9XiXiXiXP.#.#.#.#.&XiXiXiX8X,.#.| | T K ) |   ",
"  V u.4.:.9.4.4.K.iXiXqXB.#.#.:.#.N.iXiXiXiXiXK.T T #.#.) ) n   ",
"  . b.9.9.9.9.#.[.iX%Xz.4.4.9.#.#.+.:XiXiXiXiX'.| #.#.#.#.4.$   ",
"    :.r.9.9.9.I.iX[.;.#.:.9.#.9.#.#._.iXiXiXiX8XA.#.#.#.4._     ",
"    # b.#.4.4.T.E.4.9.4.9.:.4.#.4.#.D.9X1X<X1XqX~.#.#.T g.o     ",
"      4 n.:.9.9.9.9.9.:.4.4.4.:.:.4.#.4.#.#.#.#.+.#.T g.p       ",
"        U u.9.9.9.9.9.9.:.9.9.4.4.9.#.#.4.#.#.#.+.#.t.V         ",
"          U g.:.9.9.9.9.4.9.:.4.4.:.:.t.#.4.:.#.+.t.V           ",
"            p u.r.9.9.9.9.9.9.9.4.4.9.:.#.;.#.r.+.p             ",
"              * U r.r.9.9.9.9.9.9.:.4.4.r.#.r.L =               ",
"                  : v r.r.u.9.9.9.9.9.9.r.V ,                   ",
"                        < e v U U v e <                         "
};
