/* XPM */
static char *fd618ee354d94b6081d0cff98db83f0cmXeP46xG3DPZ2vvx[] = {
/* columns rows colors chars-per-pixel */
"16 16 119 2 ",
"   c None",
".  c #065AB0",
"X  c #045BB2",
"o  c #055BB3",
"O  c #065BB3",
"+  c #065CB1",
"@  c #065CB3",
"#  c #065DB3",
"$  c #035EB7",
"%  c #055CB4",
"&  c #065DB4",
"*  c #065DB5",
"=  c #065EB4",
"-  c #065FB6",
";  c #065FB7",
":  c #045DB8",
">  c #045EB8",
",  c #055EB8",
"<  c #0360BB",
"1  c #0460BB",
"2  c #0561BB",
"3  c #0660BB",
"4  c #0662BB",
"5  c #0363BE",
"6  c #0363BF",
"7  c #0264C1",
"8  c #0364C1",
"9  c #0165C3",
"0  c #0365C2",
"q  c #0265C3",
"w  c #0266C2",
"e  c #0266C3",
"r  c #0366C3",
"t  c #0367C3",
"y  c #0464C0",
"u  c #0666C3",
"i  c #0667C3",
"p  c #0166C5",
"a  c #0167C5",
"s  c #0267C4",
"d  c #0367C4",
"f  c #0267C6",
"g  c #0466C4",
"h  c #0467C4",
"j  c #0666C4",
"k  c #0668C3",
"l  c #0168C7",
"z  c #0368C6",
"x  c #0368C7",
"c  c #0369C7",
"v  c #0468C5",
"b  c #0568C5",
"n  c #0468C6",
"m  c #0469C6",
"M  c #0569C6",
"N  c #0569C7",
"B  c #056AC7",
"V  c #066AC6",
"C  c #066AC7",
"Z  c #086AC5",
"A  c #096BC7",
"S  c #0B6CC6",
"D  c #0C6DC7",
"F  c #046AC8",
"G  c #056AC8",
"H  c #056BC9",
"J  c #066AC8",
"K  c #066BC8",
"L  c #066BC9",
"P  c #066BCA",
"I  c #056CCA",
"U  c #046CCB",
"Y  c #066CCA",
"T  c #066CCB",
"R  c #056CCC",
"E  c #066DCC",
"W  c #0D6EC9",
"Q  c #106FC8",
"!  c #1371C9",
"~  c #1471C9",
"^  c #066FD0",
"/  c #418ED4",
"(  c #438ED4",
")  c #4A92D5",
"_  c #4E94D6",
"`  c #4F96D7",
"'  c #5397D6",
"]  c #5498D7",
"[  c #5699D7",
"{  c #5699D8",
"}  c #599BDA",
"|  c #5B9DD9",
" . c #5C9DDB",
".. c #65A3DD",
"X. c #68A4DD",
"o. c #71AADE",
"O. c #73AADE",
"+. c #74ABE0",
"@. c #85B6E3",
"#. c #88B8E4",
"$. c #8DBAE5",
"%. c #9DC4E9",
"&. c #A9CBEB",
"*. c #ACCDEC",
"=. c #B0D0ED",
"-. c #B8D4EE",
";. c #BBD6EF",
":. c #BBD6F0",
">. c #BCD7F0",
",. c #D3E4F5",
"<. c #DFECF8",
"1. c #E2EDF9",
"2. c #EFF6FB",
"3. c #F3F8FC",
"4. c #F6FAFD",
"5. c #F8FBFD",
"6. c #FAFCFE",
"7. c #FBFDFE",
"8. c white",
/* pixels */
"          , 3 5 5 5 :           ",
"      3 w t d w w w 9 w ,       ",
"    , x x w w w w w w 9 d :     ",
"  @ U g g d { ;.:.' w w w l X   ",
"  N x k x t ;.8.8.-.w w w d d   ",
"@ H k x N Q 4.8.8.7.S g w w d % ",
"3 H N N x [ 8.,.8.<.N w d d d > ",
"k N N N k &.8.) =.o.o.d d d d d ",
"g N N N S 3.8.@.~ _ 6.S d d d g ",
"3 H S N ( 8.8.#.N %.8.( d g d 3 ",
"@ U N H &.8.X.g ! 6.8.$.N g x X ",
"  Y H ..1.` H x W 2.8.8.' x H   ",
"  + ^ |  .K K S H +.>.;.| U .   ",
"    & E K K K N N S N N U 3     ",
"      3 K K K K N N H H &       ",
"          = 4 i g 3 &           "
};
